HIERARCHY
ROOT Hips
{
	OFFSET -3.958830 18.904000 13.208200
	CHANNELS 6 Xposition Yposition Zposition Zrotation Yrotation Xrotation 
	JOINT LHipJoint
	{
		OFFSET 0.000000 0.000000 0.000000
		CHANNELS 3 Zrotation Yrotation Xrotation
		JOINT LeftUpLeg
		{
			OFFSET 1.800000 -1.400000 0.085000
			CHANNELS 3 Zrotation Yrotation Xrotation
			JOINT LeftLeg
			{
				OFFSET 2.215000 -6.000000 0.000000
				CHANNELS 3 Zrotation Yrotation Xrotation
				JOINT LeftFoot
				{
					OFFSET 2.500000 -6.900000 0.000000
					CHANNELS 3 Zrotation Yrotation Xrotation
					JOINT LeftToeBase
					{
						OFFSET 0.200000 -0.500000 1.950000
						CHANNELS 3 Zrotation Yrotation Xrotation
						End Site
						{
							OFFSET 0.000000 0.000000 0.000000
						}
					}
				}
			}
		}
	}
	JOINT RHipJoint
	{
		OFFSET 0.000000 0.000000 0.000000
		CHANNELS 3 Zrotation Yrotation Xrotation
		JOINT RightUpLeg
		{
			OFFSET -1.800000 -1.400000 0.085000
			CHANNELS 3 Zrotation Yrotation Xrotation
			JOINT RightLeg
			{
				OFFSET -2.215000 -6.000000 0.000000
				CHANNELS 3 Zrotation Yrotation Xrotation
				JOINT RightFoot
				{
					OFFSET -2.500000 -6.900000 0.000000
					CHANNELS 3 Zrotation Yrotation Xrotation
					JOINT RightToeBase
					{
						OFFSET -0.200000 -0.500000 1.950000
						CHANNELS 3 Zrotation Yrotation Xrotation
						End Site
						{
							OFFSET 0.000000 0.000000 0.000000
						}
					}
				}
			}
		}
	}
	JOINT LowerBack
	{
		OFFSET 0.000000 0.000000 0.000000
		CHANNELS 3 Zrotation Yrotation Xrotation
		JOINT Spine
		{
			OFFSET -0.087000 1.940000 -0.288900
			CHANNELS 3 Zrotation Yrotation Xrotation
			JOINT Spine1
			{
				OFFSET 0.000000 1.950000 0.060000
				CHANNELS 3 Zrotation Yrotation Xrotation
				JOINT Neck
				{
					OFFSET 0.000000 0.000000 0.000000
					CHANNELS 3 Zrotation Yrotation Xrotation
					JOINT Neck1
					{
						OFFSET 0.000000 1.600000 0.340000
						CHANNELS 3 Zrotation Yrotation Xrotation
						JOINT Head
						{
							OFFSET 0.000000 1.667000 -0.240000
							CHANNELS 3 Zrotation Yrotation Xrotation
							End Site
							{
								OFFSET 0.000000 0.000000 0.000000
							}
						}
					}
				}
				JOINT LeftShoulder
				{
					OFFSET 0.000000 0.000000 0.000000
					CHANNELS 3 Zrotation Yrotation Xrotation
					JOINT LeftArm
					{
						OFFSET 2.700000 1.550000 -0.730000
						CHANNELS 3 Zrotation Yrotation Xrotation
						JOINT LeftForeArm
						{
							OFFSET 5.450000 0.000000 0.000000
							CHANNELS 3 Zrotation Yrotation Xrotation
							JOINT LeftHand
							{
								OFFSET 3.450000 0.000000 0.000000
								CHANNELS 3 Zrotation Yrotation Xrotation
								JOINT LeftHandIndex1
								{
									OFFSET 0.750000 0.000000 0.000000
									CHANNELS 3 Zrotation Yrotation Xrotation
									End Site
									{
										OFFSET 0.000000 0.000000 0.000000
									}
								}
							}
						}
					}
				}
				JOINT RightShoulder
				{
					OFFSET 0.000000 0.000000 0.000000
					CHANNELS 3 Zrotation Yrotation Xrotation
					JOINT RightArm
					{
						OFFSET -2.700000 1.550000 -0.730000
						CHANNELS 3 Zrotation Yrotation Xrotation
						JOINT RightForeArm
						{
							OFFSET -5.450000 0.000000 0.000000
							CHANNELS 3 Zrotation Yrotation Xrotation
							JOINT RightHand
							{
								OFFSET -3.450000 0.000000 0.000000
								CHANNELS 3 Zrotation Yrotation Xrotation
								JOINT RightHandIndex1
								{
									OFFSET -0.750000 0.000000 0.000000
									CHANNELS 3 Zrotation Yrotation Xrotation
									End Site
									{
										OFFSET 0.000000 0.000000 0.000000
									}
								}
							}
						}
					}
				}
			}
		}
	}
}
MOTION
Frames: 13
Frame Time: 0.016667
0.122530 16.127920 -0.900540 -4.744315 14.593504 -8.480192 -15.555884 11.425792 4.893079 25.139999 -3.652713 -38.793046 -4.416253 16.102789 53.730520 -0.063383 11.081709 0.468453 0.624880 0.116470 0.665370 18.202147 -9.839129 2.507630 -26.891946 2.890342 -21.407842 15.508905 -18.697118 46.750114 -1.378627 -8.957160 1.252452 0.167230 0.067650 0.141830 -3.056137 -1.253203 -8.954124 -1.436936 8.197965 32.308040 2.699060 8.695109 14.882846 -2.674633 2.322646 -14.211988 0.269603 -3.733598 68.423405 3.011980 2.437820 -16.165300 0.081373 -22.883405 4.928286 0.666254 -18.676660 -4.631596 115.188960 -62.705343 -95.898986 -3.505519 2.116519 1.128520 -0.076990 0.155940 0.091450 5.619801 25.947319 10.448137 51.111825 21.163017 -8.662957 40.293075 54.181700 11.784717 1.734554 -1.367656 -0.428830 0.461690 0.047790 -0.537850 
0.131300 16.117210 -0.909450 -4.731820 14.834252 -8.579881 -15.585147 11.458654 4.908801 24.980050 -3.772385 -39.036254 -4.147370 16.048694 54.152639 -0.086248 11.144990 0.434377 0.606600 0.086450 0.653270 18.175115 -9.794280 2.500748 -27.077937 2.896743 -21.313417 15.544100 -18.794039 46.879667 -1.377272 -9.003049 1.234529 0.158550 0.077310 0.156240 -2.972422 -1.392177 -8.949842 -1.921124 8.614491 32.553806 3.257443 9.034019 14.936291 -2.747227 2.373594 -14.353562 0.238746 -3.785685 68.641119 2.735830 2.535920 -16.033230 0.055807 -23.657613 4.805836 0.970347 -19.679216 -4.621789 114.895913 -62.250232 -95.039220 -3.532266 2.089844 1.141360 -0.062280 0.146080 0.075070 5.801941 26.820669 10.764374 50.475346 20.899933 -9.114086 39.767537 53.950909 11.449293 1.698998 -1.356629 -0.440320 0.457580 0.078620 -0.550820 
0.148480 16.095080 -0.929270 -4.823908 15.291841 -8.938640 -15.640704 11.517746 4.934487 24.717188 -3.943035 -39.522789 -3.500729 15.925034 55.130942 -0.103300 11.256545 0.358255 0.594140 0.063210 0.651290 18.124339 -9.692503 2.501327 -27.493584 2.995708 -20.923921 16.032029 -19.116932 46.988003 -1.394809 -9.107423 1.181639 0.150040 0.066460 0.195330 -2.812982 -1.661602 -8.946680 -2.704214 9.587096 33.395400 4.454443 9.917964 15.236542 -2.924075 2.638729 -14.738207 0.566636 -4.109455 68.916649 2.617120 2.805810 -16.371720 0.267678 -25.583657 4.568163 1.425864 -21.873266 -4.876808 114.439739 -60.580530 -92.812387 -3.564545 2.076758 1.158240 -0.050340 0.152900 0.040030 5.941581 28.888291 11.537775 48.857760 20.284639 -10.281433 38.407993 53.673124 10.662730 1.635122 -1.352642 -0.433150 0.424990 0.117000 -0.568420 
0.168990 16.061440 -0.951590 -4.889928 15.923927 -9.379448 -15.710108 11.580395 4.970701 24.350449 -4.202257 -40.185181 -2.672721 15.801393 56.487950 -0.078623 11.383740 0.307657 0.601570 0.083250 0.659180 18.064371 -9.563546 2.497880 -28.043027 3.096441 -20.441218 16.594691 -19.476374 47.215410 -1.428155 -9.226478 1.138535 0.163660 0.058490 0.195050 -2.615078 -1.994342 -8.941840 -3.744550 10.972178 34.635912 6.158325 11.189110 15.695097 -3.310109 3.093136 -14.983734 1.086296 -5.054754 67.967376 2.932100 2.630440 -16.969520 0.482040 -27.725176 3.843775 2.191263 -24.964548 -5.228719 113.974585 -59.072290 -90.707783 -3.575613 2.046254 1.155230 -0.050300 0.158820 0.029920 6.492424 31.178388 12.565664 46.629601 18.867948 -12.020364 37.744385 53.841455 10.171310 1.560258 -1.376321 -0.429020 0.426010 0.119330 -0.571570 
0.190300 16.026750 -0.976320 -4.835979 16.491238 -9.833331 -15.768511 11.636602 4.993010 23.868864 -4.517776 -40.759461 -1.853108 15.667277 57.822593 -0.068667 11.521059 0.252660 0.607410 0.099180 0.677690 18.014714 -9.444602 2.502022 -28.721814 3.217869 -19.989554 17.157044 -19.792123 47.414723 -1.454165 -9.340308 1.087171 0.183920 0.055570 0.195170 -2.445644 -2.297305 -8.931750 -4.860420 12.468990 36.170230 7.702508 12.504283 16.187555 -3.790376 3.661275 -15.058665 1.913743 -6.179754 66.162410 3.105210 2.579250 -17.959340 0.604223 -29.899208 2.592862 4.352583 -27.884732 -5.777224 113.318885 -58.514047 -89.026976 -3.598646 1.990574 1.154530 -0.045670 0.161740 0.010760 7.328820 33.428218 13.599470 44.310115 17.689544 -13.707603 36.578613 53.611805 9.398661 1.460899 -1.403004 -0.435330 0.435520 0.127390 -0.580630 
0.211330 15.993740 -1.000390 -4.704398 16.959957 -10.075410 -15.830357 11.695483 5.021467 23.297979 -4.791620 -41.486887 -0.983885 15.534918 59.123348 -0.070885 11.669159 0.208584 0.623470 0.120230 0.696610 17.967645 -9.289930 2.519910 -29.478318 3.406165 -19.812376 17.699500 -20.118471 47.743441 -1.496470 -9.454948 1.039843 0.213730 0.068110 0.189220 -2.269687 -2.663579 -8.930896 -6.063162 13.987184 37.428224 9.262329 13.687845 16.746704 -4.313018 3.789844 -15.062378 1.528782 -6.640557 64.711863 3.792430 2.294810 -19.529590 0.687456 -31.678205 1.140651 5.626199 -31.092097 -6.061329 112.353663 -58.117064 -87.013521 -3.620169 1.874360 1.178630 -0.050690 0.172830 0.012250 8.347982 35.513773 14.571585 41.989737 16.838669 -15.075481 34.788928 52.781588 8.418887 1.340528 -1.413805 -0.459650 0.480180 0.131260 -0.587130 
0.231780 15.963000 -1.021690 -4.634041 17.487642 -10.302300 -15.866790 11.727695 5.049233 22.820157 -5.057017 -42.079733 -0.322980 15.433954 60.169500 -0.081723 11.780875 0.162151 0.658220 0.158130 0.721430 17.941610 -9.175304 2.541860 -30.121752 3.562445 -19.649909 18.160173 -20.451711 48.122354 -1.543655 -9.574158 0.988925 0.250090 0.058490 0.188390 -2.165943 -2.924132 -8.944214 -6.830382 15.113438 38.648946 10.226212 14.530441 17.264558 -4.758857 3.689676 -15.072600 0.656967 -6.851596 63.787518 4.253150 1.987160 -21.013060 0.614444 -33.184158 -0.407252 7.397349 -33.867018 -6.415063 110.756735 -58.079819 -84.048105 -3.619193 1.741557 1.203180 -0.064700 0.188300 0.014850 9.381293 37.308898 15.455984 40.111638 16.419961 -16.116918 32.856550 51.696442 7.405414 1.223116 -1.439552 -0.469480 0.502550 0.127190 -0.597160 
0.249960 15.937530 -1.039770 -4.678932 17.904600 -10.723156 -15.898182 11.783606 5.076883 22.560551 -5.290686 -42.445342 0.254941 15.353093 61.139101 -0.087128 11.887489 0.116326 0.694650 0.199660 0.745430 17.914732 -9.089944 2.536266 -30.459159 3.678079 -19.372583 18.285066 -20.657948 48.635290 -1.585635 -9.673695 0.946798 0.286130 0.046200 0.188200 -2.071988 -3.186174 -8.949999 -7.563119 16.023031 39.846686 11.153654 15.086252 17.940995 -5.202618 3.382310 -15.204334 -0.500969 -6.783601 63.160715 4.523260 1.837560 -22.162190 0.635586 -34.423559 -1.822539 9.179604 -35.778157 -6.964582 109.524597 -58.211045 -81.828330 -3.612028 1.643226 1.222170 -0.077300 0.203220 0.018260 10.353715 38.935178 16.289326 38.178136 16.255655 -17.019013 31.562952 50.483272 6.660541 1.106856 -1.474692 -0.474080 0.518060 0.119400 -0.604840 
0.261640 15.906840 -1.047110 -4.684808 18.303830 -10.760699 -15.940164 11.799034 5.120804 22.410108 -5.480704 -43.073772 0.814314 15.351304 62.063304 -0.091942 12.014938 0.069384 0.714220 0.222290 0.762100 17.891849 -8.970261 2.538090 -30.741496 3.743833 -19.473024 18.430506 -20.932386 49.211519 -1.614841 -9.793637 0.902659 0.317020 0.047170 0.182090 -1.957695 -3.444569 -8.953284 -8.628648 17.006089 40.179115 12.437413 15.446236 18.599358 -5.743766 3.144052 -15.116245 -1.302757 -6.804551 62.235193 4.320670 1.816980 -22.638240 1.100205 -34.996032 -3.209046 10.932516 -37.356723 -7.395700 108.113489 -58.892214 -79.959243 -3.612837 1.526149 1.226040 -0.074480 0.199810 0.016570 11.108210 39.880504 16.868895 36.708340 16.398465 -17.589855 31.006707 49.501274 6.246359 1.012675 -1.506385 -0.487900 0.535910 0.119550 -0.613790 
0.274570 15.877680 -1.054240 -4.841104 18.499740 -10.815699 -15.974575 11.807315 5.172960 22.368506 -5.579002 -43.766880 1.458709 15.292450 62.967568 -0.063686 12.095159 0.039067 0.746620 0.266300 0.783900 17.874515 -8.862155 2.543817 -30.836029 3.853079 -19.669424 18.541420 -21.130641 49.730325 -1.655390 -9.876807 0.872177 0.339410 0.021930 0.179860 -1.866730 -3.658576 -8.975535 -9.443211 17.776645 40.593569 13.347915 15.689021 18.794801 -6.054079 2.705182 -15.240884 -2.490276 -6.388647 61.997404 4.278080 1.960900 -23.408810 1.301655 -35.344954 -4.000370 11.837707 -38.257404 -7.623865 108.251409 -59.095321 -79.992720 -3.596169 1.521021 1.230140 -0.092570 0.220580 0.023330 11.735022 40.639947 17.277174 35.759298 16.634775 -17.969293 30.895514 48.696165 6.058064 0.959795 -1.536141 -0.474800 0.533150 0.097230 -0.613240 
0.284800 15.849190 -1.057030 -4.899871 18.654045 -10.684095 -16.009513 11.773625 5.234231 22.366731 -5.657200 -44.551802 1.871919 15.424267 63.867526 -0.008248 12.225514 0.015111 0.765140 0.295620 0.801810 17.864569 -8.741269 2.561216 -31.099410 3.931038 -20.029851 18.743796 -21.407213 50.235690 -1.693162 -9.972128 0.849498 0.350180 0.026220 0.175140 -1.779994 -3.826144 -9.003194 -10.366553 18.525231 40.532713 14.236316 15.864707 19.009381 -6.330545 2.289800 -15.376417 -3.432608 -5.999670 61.855939 4.334000 2.087680 -23.635230 1.587761 -35.418421 -4.519586 11.695690 -38.736373 -7.487124 109.089185 -59.563596 -81.847729 -3.605016 1.535747 1.220470 -0.095560 0.231840 0.035150 12.226558 41.163138 17.523605 34.940028 16.940281 -18.085338 31.062362 47.743599 5.940310 0.931586 -1.540977 -0.465680 0.551870 0.077850 -0.601730 
0.294210 15.824030 -1.056130 -5.119186 18.760365 -10.728368 -16.019585 11.739478 5.280004 22.482351 -5.577041 -45.105274 2.267080 15.496509 64.544220 -0.008545 12.341150 -0.016546 0.752460 0.284360 0.793020 17.866275 -8.693303 2.565589 -31.073013 4.079620 -20.104199 18.853173 -21.546823 50.569510 -1.705404 -10.027979 0.848435 0.353830 0.046000 0.157220 -1.760495 -3.859661 -9.031910 -10.767099 18.911902 40.736758 14.510260 16.046799 18.930046 -6.495477 1.854425 -15.590599 -4.330355 -5.541373 61.991310 4.511680 2.184320 -23.960910 1.787967 -35.438335 -4.896982 11.881460 -38.807763 -7.086713 111.590370 -60.509672 -86.747854 -3.636826 1.630783 1.235430 -0.090530 0.223090 0.033050 12.578035 41.575998 17.718044 34.619788 17.377080 -18.168396 30.979684 46.999755 5.770176 0.893136 -1.509445 -0.492780 0.588630 0.092160 -0.606950 
0.305600 15.812280 -1.050630 -5.294332 18.835401 -10.999793 -16.025311 11.769883 5.272598 22.438719 -5.467317 -45.174963 2.766346 15.387488 65.034387 -0.004090 12.380076 -0.029921 0.759750 0.300710 0.798330 17.859140 -8.687448 2.548575 -31.025455 4.184580 -19.744618 18.937557 -21.571322 50.611891 -1.719166 -10.032125 0.853620 0.362890 0.045810 0.150090 -1.740587 -3.914410 -9.018699 -11.267196 19.243301 40.769711 14.697288 16.181221 19.164995 -6.588542 1.652327 -15.680971 -4.822759 -5.279064 62.060298 4.675020 2.273920 -24.705090 2.038168 -35.506874 -5.173473 11.926068 -39.000600 -7.201168 111.299959 -60.485233 -86.359128 -3.634355 1.588635 1.245950 -0.096230 0.232780 0.033360 12.577952 41.900120 17.920244 34.254392 17.768969 -18.315429 30.338060 46.838427 5.575286 0.863952 -1.496132 -0.496540 0.608580 0.090690 -0.606380 
